<mxfile host="app.diagrams.net" modified="2023-08-03T09:59:13.118Z" agent="Mozilla/5.0 (Windows NT 10.0; Win64; x64) AppleWebKit/537.36 (KHTML, like Gecko) Chrome/102.0.0.0 Safari/537.36" etag="xKVwdQzk4hVNXtAht2RO" version="21.6.6" type="github">
  <diagram name="Page-1" id="iQzEEboLnaZe9uG5O2CT">
    <mxGraphModel dx="818" dy="524" grid="1" gridSize="10" guides="1" tooltips="1" connect="1" arrows="1" fold="1" page="1" pageScale="1" pageWidth="850" pageHeight="1100" math="0" shadow="0">
      <root>
        <mxCell id="0" />
        <mxCell id="1" parent="0" />
        <mxCell id="-BdMqgLP38-gJvFVx6mH-3" value="" style="edgeStyle=orthogonalEdgeStyle;rounded=0;orthogonalLoop=1;jettySize=auto;html=1;" edge="1" parent="1" source="-BdMqgLP38-gJvFVx6mH-1" target="-BdMqgLP38-gJvFVx6mH-2">
          <mxGeometry relative="1" as="geometry" />
        </mxCell>
        <mxCell id="-BdMqgLP38-gJvFVx6mH-1" value="1" style="rounded=0;whiteSpace=wrap;html=1;" vertex="1" parent="1">
          <mxGeometry x="130" y="40" width="60" height="40" as="geometry" />
        </mxCell>
        <mxCell id="-BdMqgLP38-gJvFVx6mH-7" value="" style="edgeStyle=orthogonalEdgeStyle;rounded=0;orthogonalLoop=1;jettySize=auto;html=1;" edge="1" parent="1" source="-BdMqgLP38-gJvFVx6mH-2" target="-BdMqgLP38-gJvFVx6mH-6">
          <mxGeometry relative="1" as="geometry" />
        </mxCell>
        <mxCell id="-BdMqgLP38-gJvFVx6mH-9" style="edgeStyle=orthogonalEdgeStyle;rounded=0;orthogonalLoop=1;jettySize=auto;html=1;entryX=0;entryY=0.5;entryDx=0;entryDy=0;" edge="1" parent="1" source="-BdMqgLP38-gJvFVx6mH-2" target="-BdMqgLP38-gJvFVx6mH-8">
          <mxGeometry relative="1" as="geometry">
            <Array as="points">
              <mxPoint x="190" y="210" />
            </Array>
          </mxGeometry>
        </mxCell>
        <mxCell id="-BdMqgLP38-gJvFVx6mH-11" value="" style="edgeStyle=orthogonalEdgeStyle;rounded=0;orthogonalLoop=1;jettySize=auto;html=1;" edge="1" parent="1" source="-BdMqgLP38-gJvFVx6mH-2" target="-BdMqgLP38-gJvFVx6mH-10">
          <mxGeometry relative="1" as="geometry" />
        </mxCell>
        <mxCell id="-BdMqgLP38-gJvFVx6mH-2" value="2" style="rhombus;whiteSpace=wrap;html=1;rounded=0;" vertex="1" parent="1">
          <mxGeometry x="130" y="110" width="60" height="60" as="geometry" />
        </mxCell>
        <mxCell id="-BdMqgLP38-gJvFVx6mH-15" value="" style="edgeStyle=orthogonalEdgeStyle;rounded=0;orthogonalLoop=1;jettySize=auto;html=1;" edge="1" parent="1" source="-BdMqgLP38-gJvFVx6mH-6" target="-BdMqgLP38-gJvFVx6mH-12">
          <mxGeometry relative="1" as="geometry" />
        </mxCell>
        <mxCell id="-BdMqgLP38-gJvFVx6mH-6" value="3" style="rounded=0;whiteSpace=wrap;html=1;" vertex="1" parent="1">
          <mxGeometry x="220" y="120" width="60" height="40" as="geometry" />
        </mxCell>
        <mxCell id="-BdMqgLP38-gJvFVx6mH-14" value="" style="edgeStyle=orthogonalEdgeStyle;rounded=0;orthogonalLoop=1;jettySize=auto;html=1;" edge="1" parent="1" source="-BdMqgLP38-gJvFVx6mH-8" target="-BdMqgLP38-gJvFVx6mH-13">
          <mxGeometry relative="1" as="geometry" />
        </mxCell>
        <mxCell id="-BdMqgLP38-gJvFVx6mH-8" value="4" style="rounded=0;whiteSpace=wrap;html=1;" vertex="1" parent="1">
          <mxGeometry x="220" y="190" width="60" height="40" as="geometry" />
        </mxCell>
        <mxCell id="-BdMqgLP38-gJvFVx6mH-10" value="5" style="rounded=0;whiteSpace=wrap;html=1;" vertex="1" parent="1">
          <mxGeometry x="40" y="120" width="60" height="40" as="geometry" />
        </mxCell>
        <mxCell id="-BdMqgLP38-gJvFVx6mH-12" value="6" style="rounded=0;whiteSpace=wrap;html=1;" vertex="1" parent="1">
          <mxGeometry x="310" y="120" width="60" height="40" as="geometry" />
        </mxCell>
        <mxCell id="-BdMqgLP38-gJvFVx6mH-13" value="7" style="rounded=0;whiteSpace=wrap;html=1;" vertex="1" parent="1">
          <mxGeometry x="310" y="190" width="60" height="40" as="geometry" />
        </mxCell>
      </root>
    </mxGraphModel>
  </diagram>
</mxfile>
